<?xml version="1.0" encoding="utf-8"?>
<!-- Generator: Adobe Illustrator 26.0.2, SVG Export Plug-In . SVG Version: 6.00 Build 0)  -->
<svg version="1.1" id="Layer_1" xmlns="http://www.w3.org/2000/svg" xmlns:xlink="http://www.w3.org/1999/xlink" x="0px" y="0px"
	 viewBox="0 0 425.2 425.2" style="enable-background:new 0 0 425.2 425.2;" xml:space="preserve">
<style type="text/css">
	.st0{stroke:#000000;stroke-miterlimit:10;}
</style>
<g>
	<path class="st0" d="M379.79,145.19l-33.3,57.65v0.01l-3.73,6.48l-28.25,48.91l-1.26,2.18l-28.23,48.91l-5.92-10.25l-22.32-38.66
		l-1.26-2.18v-0.01L249.61,248l-4.17-7.22l-4.35,7.54l-6.84,11.84v0.01l-0.16,0.25l-22.5,38.97l-6.85,11.85l-29.34-50.82l-0.16-0.24
		v-0.01l-29.34-50.83l-42.23-73.12L78.37,92.34L43.75,32.38h58.98l15.42,26.69l23.95,41.5l62.65,108.51l6.84-11.85l4.35-7.53
		l29.49-51.09l29.49,51.09l4.17,7.2l5.9,10.24l38.95-67.46c-2.1-3.08-4.31-6.07-6.65-8.95c-1.6-1.99-3.25-3.93-4.97-5.82
		c-11.53-12.75-25.49-23.3-41.14-30.89c-17.71-8.59-37.58-13.4-58.59-13.4c-0.21,0-0.42,0-0.64,0.01
		c-18.7,0.07-36.5,3.98-52.65,10.96c-2.32,1-4.6,2.06-6.85,3.21c-0.66,0.32-1.31,0.66-1.96,1l-24-41.57
		c0.64-0.35,1.29-0.71,1.93-1.05c2.22-1.17,4.46-2.3,6.74-3.39c15.59-7.43,32.43-12.68,50.11-15.37c8.9-1.36,18.02-2.06,27.32-2.06
		c36.51,0,70.49,10.86,98.88,29.53l0.07,0.04c9.08,5.97,17.6,12.75,25.44,20.24c1.79,1.72,3.56,3.47,5.3,5.27
		c2.49,2.57,4.9,5.23,7.23,7.95c9.9,11.55,18.36,24.38,25.11,38.21C376.49,137.41,378.19,141.27,379.79,145.19z"/>
	<polygon class="st0" points="135.9,211.29 164.27,260.43 135.9,260.43 	"/>
	<path class="st0" d="M392.81,212.61c0,5.44-0.24,10.83-0.72,16.14c-0.68,7.67-1.84,15.2-3.45,22.57c-0.68,3.06-1.43,6.1-2.25,9.11
		c-9.12,33.19-27.5,62.57-52.17,85.15c-2.19,2.01-4.42,3.95-6.71,5.85c-31.19,25.85-71.24,41.38-114.91,41.38
		c-99.53,0-180.22-80.69-180.22-180.21c0-16.99,2.34-33.42,6.75-49.01v-0.01c5.71-20.25,14.86-39.04,26.81-55.72v-0.01
		c1.86-2.61,3.8-5.17,5.8-7.67l25.99,45c-1.79,2.94-3.47,5.95-5.04,9.03c-9.31,18.28-14.55,38.97-14.55,60.89
		c0,6.19,0.42,12.26,1.24,18.22v0.01c4.82,35.69,23.69,66.93,50.82,88.01l0.01,0.01c20.97,16.3,46.91,26.5,75.14,27.99
		c2.4,0.13,4.82,0.2,7.25,0.2c27.17,0,52.47-8.06,73.63-21.95c2.26-1.47,4.48-3.02,6.64-4.65c14.48-10.78,26.71-24.41,35.86-40.06
		c4.15-7.09,7.67-14.6,10.48-22.46h-14.83l22.51-38.98l0.01-0.01l6.98-12.09h38.9C392.8,210.43,392.81,211.52,392.81,212.61z"/>
	<polygon class="st0" points="248.08,260.43 242.44,260.43 245.26,255.54 	"/>
</g>
</svg>
