<svg width="40" height="40" viewBox="0 0 40 40" fill="none" xmlns="http://www.w3.org/2000/svg">
<circle cx="20" cy="20" r="19" stroke="white" stroke-width="2"/>
<path d="M20 8C13.3725 8 8 13.3725 8 20C8 26.6275 13.3725 32 20 32C26.6275 32 32 26.6275 32 20C32 13.3725 26.6275 8 20 8ZM17.0625 24.9738H14.6325V17.1537H17.0625V24.9738ZM15.8325 16.1937C15.065 16.1937 14.5688 15.65 14.5688 14.9775C14.5688 14.2912 15.08 13.7638 15.8637 13.7638C16.6475 13.7638 17.1275 14.2912 17.1425 14.9775C17.1425 15.65 16.6475 16.1937 15.8325 16.1937ZM25.9375 24.9738H23.5075V20.64C23.5075 19.6313 23.155 18.9462 22.2763 18.9462C21.605 18.9462 21.2063 19.41 21.03 19.8563C20.965 20.015 20.9488 20.24 20.9488 20.4638V24.9725H18.5175V19.6475C18.5175 18.6713 18.4862 17.855 18.4537 17.1525H20.565L20.6763 18.2388H20.725C21.045 17.7288 21.8288 16.9762 23.14 16.9762C24.7388 16.9762 25.9375 18.0475 25.9375 20.35V24.9738Z" fill="white"/>
</svg>
