<svg width="25" height="24" viewBox="0 0 25 24" fill="none" xmlns="http://www.w3.org/2000/svg">
<path d="M2.49554 11.242C2.45878 11.0946 2.45608 10.9408 2.48765 10.7922C2.51921 10.6436 2.5842 10.5042 2.6777 10.3845C2.7712 10.2648 2.89074 10.1679 3.02724 10.1013C3.16375 10.0347 3.31365 10 3.46554 10H20.9055C21.0574 10 21.2073 10.0347 21.3438 10.1013C21.4804 10.1679 21.5999 10.2648 21.6934 10.3845C21.7869 10.5042 21.8519 10.6436 21.8834 10.7922C21.915 10.9408 21.9123 11.0946 21.8755 11.242L20.0645 18.485C19.9564 18.9177 19.7067 19.3018 19.3552 19.5763C19.0037 19.8508 18.5705 19.9999 18.1245 20H6.24654C5.80055 19.9999 5.36738 19.8508 5.01587 19.5763C4.66437 19.3018 4.4147 18.9177 4.30654 18.485L2.49554 11.243V11.242Z" stroke="black" stroke-width="2" stroke-linejoin="round"/>
<path d="M18.1855 10L14.1855 4M9.18555 14V16V14ZM15.1855 14V16V14ZM6.18555 10L10.1855 4L6.18555 10Z" stroke="black" stroke-width="2" stroke-linecap="round"/>
</svg>
